<svg id="Layer_1" enable-background="new 0 0 512.672 512.672" height="512" viewBox="0 0 512.672 512.672" width="512" xmlns="http://www.w3.org/2000/svg"><g><g><path d="m385.112 98.024c-4.146-28.797-33.779-46.922-61.44-37.12-16.946-36.738-54.197-60.904-95.096-60.904-42.861 0-81.152 26.042-97.059 65.39-23.604-.32-44.087 21.053-40.899 46.274-26.096 16.779-42.093 45.813-42.093 77.036 0 42.062 34.219 76.28 76.28 76.28h198.53v-15h-198.53c-33.79 0-61.28-27.49-61.28-61.28 0-27.64 14.995-53.229 39.132-66.78l5.11-2.869-1.548-5.652c-4.549-16.615 8.091-32.787 24.827-33.008 2.683-.056 4.363.308 10.6 1.269l2.028-5.948c12.384-36.315 46.503-60.712 84.902-60.712 37.353 0 71.156 23.53 84.116 58.553l3.088 8.346 7.702-4.457c4.75-2.748 10.17-4.201 15.673-4.201 17.25 0 31.299 13.969 31.429 31.188l-.009 7.455 7.019.451c40.122 2.579 71.551 36.123 71.551 76.365 0 33.849-27.401 61.28-61.28 61.28h-49.53v15h49.53c42.136 0 76.28-34.105 76.28-76.28.001-45.915-34.216-84.54-79.033-90.676z" id="id_101" style="fill: rgb(255, 255, 255);"></path><path d="m287.029 374.257c6.091-11.221 5.807-24.427-.76-35.326l-29.933-49.676-29.933 49.676c-6.567 10.899-6.852 24.105-.76 35.326 13.256 24.415 48.167 24.348 61.386 0zm-31.49 3.262c-15.212-.514-24.267-17.603-16.288-30.846l17.085-28.354 17.085 28.354c8.225 13.651-1.639 31.475-17.882 30.846z" id="id_102" style="fill: rgb(255, 255, 255);"></path><path d="m193.095 409.385-29.933 49.676c-6.567 10.899-6.852 24.105-.76 35.325 13.236 24.383 48.151 24.38 61.386 0 6.091-11.221 5.806-24.426-.761-35.325zm-.797 88.264c-15.213-.514-24.267-17.605-16.288-30.847l17.085-28.354 17.084 28.354c8.076 13.403-1.311 31.4-17.881 30.847z" id="id_103" style="fill: rgb(255, 255, 255);"></path><path d="m315.095 409.385-29.933 49.676c-6.567 10.899-6.852 24.105-.76 35.325 13.236 24.383 48.151 24.38 61.386 0 6.091-11.221 5.806-24.426-.761-35.325zm-.797 88.264c-15.213-.514-24.267-17.605-16.288-30.847l17.085-28.354 17.084 28.354c8.076 13.403-1.311 31.4-17.881 30.847z" id="id_104" style="fill: rgb(255, 255, 255);"></path><path d="m171.173 375.887c6.087-11.219 5.802-24.422-.763-35.317l-29.934-49.67-29.936 49.673c-6.743 11.198-6.789 25.16-.12 36.437l12.911-7.637c-3.917-6.622-3.895-14.496.058-21.061l17.086-28.352 17.086 28.352c8.065 13.384-1.208 31.28-17.875 30.854-3.045-.106-5.896-.852-8.474-2.215l-7.014 13.26c15.764 8.336 37.256 3.587 46.975-14.324z" id="id_105" style="fill: rgb(255, 255, 255);"></path><path d="m372.198 290.896-29.933 49.676c-6.567 10.899-6.852 24.105-.76 35.325 13.236 24.383 48.151 24.38 61.386 0 6.091-11.22 5.807-24.426-.76-35.325zm-.797 88.264c-15.213-.514-24.267-17.605-16.288-30.847l17.085-28.354 17.085 28.354c8.076 13.403-1.312 31.399-17.882 30.847z" id="id_106" style="fill: rgb(255, 255, 255);"></path></g><g><path d="m299.577 199.986h-15v-15h15zm-45 0h-15v-15h15zm-45 0h-15v-15h15z" id="id_107" style="fill: rgb(255, 255, 255);"></path></g></g></svg>